<svg id="Layer_1" data-name="Layer 1" xmlns="http://www.w3.org/2000/svg" viewBox="0 0 343.63 149.66"><defs><style>.cls-1{fill:#231f20;}</style></defs><path class="cls-1" d="M44.12,16.35H0V0H107.38V16.35H63.05V148.88H44.12Z"/><path class="cls-1" d="M108.94,100.05h.36c2.15-3.13,5.19-7,7.69-10.11l25.42-30.67h19L127.91,95.82,166,148.17H146.88L117,105.56l-8,9.18v33.43H93.37V36.05h15.57Z"/><path class="cls-1" d="M177.53,135.75c0-8.17,5.38-13.92,12.91-13.92s12.69,5.75,12.69,13.92c0,7.95-4.95,13.91-12.91,13.91C182.69,149.66,177.53,143.7,177.53,135.75Z"/><path class="cls-1" d="M251.37,97.47h4.95l-20.93,51.91h-5.68l-21-51.91h5l18.82,46.65Z"/><path class="cls-1" d="M286.11,130.25c0,10.52-7.4,19.13-16.58,19.13S253,140.77,253,130.25s7.4-19.14,16.51-19.14S286.11,119.73,286.11,130.25Zm-4.1,0c0-7.93-5.61-14.33-12.48-14.33s-12.41,6.4-12.41,14.33,5.61,14.33,12.41,14.33S282,138.18,282,130.25Z"/><path class="cls-1" d="M302,144.58h7.19v4.8H302c-4.56,0-8.26-4.34-8.26-9.6V116.37h-5.68v-4.49h5.68V103h4.09v8.92H306v4.49h-8.13v23.41C297.86,142.45,299.71,144.58,302,144.58Z"/><path class="cls-1" d="M343.63,130.25a12.38,12.38,0,0,1-.06,1.45H314.71c.59,7.24,5.94,12.88,12.35,12.88,4.62,0,8.71-3,10.83-7.32l3.63,2.37c-2.84,5.79-8.26,9.75-14.46,9.75-9.12,0-16.51-8.61-16.51-19.13s7.39-19.14,16.51-19.14S343.63,119.73,343.63,130.25Zm-4.42-3c-1.19-6.48-6.21-11.28-12.15-11.28s-10.9,4.8-12.16,11.28Z"/></svg>